<svg id="visual" viewBox="0 0 1400 1700" width="1400" height="1700" xmlns="http://www.w3.org/2000/svg" xmlns:xlink="http://www.w3.org/1999/xlink" version="1.1"><path d="M0 59L58.3 164.8C116.7 270.7 233.3 482.3 350 657.8C466.7 833.3 583.3 972.7 700 1026.2C816.7 1079.7 933.3 1047.3 1050 1144C1166.7 1240.7 1283.3 1466.3 1341.7 1579.2L1400 1692L1400 1701L1341.7 1701C1283.3 1701 1166.7 1701 1050 1701C933.3 1701 816.7 1701 700 1701C583.3 1701 466.7 1701 350 1701C233.3 1701 116.7 1701 58.3 1701L0 1701Z" fill="#6370ff" stroke-linecap="round" stroke-linejoin="miter"></path></svg>