<svg id="visual" viewBox="0 0 900 600" width="900" height="600" xmlns="http://www.w3.org/2000/svg" xmlns:xlink="http://www.w3.org/1999/xlink" version="1.1"><rect x="0" y="0" width="900" height="600" fill="#4d5bf4"></rect><defs><linearGradient id="grad1_0" x1="33.3%" y1="0%" x2="100%" y2="100%"><stop offset="20%" stop-color="#0a257e" stop-opacity="1"></stop><stop offset="80%" stop-color="#0a257e" stop-opacity="1"></stop></linearGradient></defs><defs><linearGradient id="grad1_1" x1="33.3%" y1="0%" x2="100%" y2="100%"><stop offset="20%" stop-color="#0a257e" stop-opacity="1"></stop><stop offset="80%" stop-color="#2236a4" stop-opacity="1"></stop></linearGradient></defs><defs><linearGradient id="grad1_2" x1="33.3%" y1="0%" x2="100%" y2="100%"><stop offset="20%" stop-color="#3748cb" stop-opacity="1"></stop><stop offset="80%" stop-color="#2236a4" stop-opacity="1"></stop></linearGradient></defs><defs><linearGradient id="grad1_3" x1="33.3%" y1="0%" x2="100%" y2="100%"><stop offset="20%" stop-color="#3748cb" stop-opacity="1"></stop><stop offset="80%" stop-color="#4d5bf4" stop-opacity="1"></stop></linearGradient></defs><defs><linearGradient id="grad2_0" x1="0%" y1="0%" x2="66.7%" y2="100%"><stop offset="20%" stop-color="#0a257e" stop-opacity="1"></stop><stop offset="80%" stop-color="#0a257e" stop-opacity="1"></stop></linearGradient></defs><defs><linearGradient id="grad2_1" x1="0%" y1="0%" x2="66.7%" y2="100%"><stop offset="20%" stop-color="#2236a4" stop-opacity="1"></stop><stop offset="80%" stop-color="#0a257e" stop-opacity="1"></stop></linearGradient></defs><defs><linearGradient id="grad2_2" x1="0%" y1="0%" x2="66.7%" y2="100%"><stop offset="20%" stop-color="#2236a4" stop-opacity="1"></stop><stop offset="80%" stop-color="#3748cb" stop-opacity="1"></stop></linearGradient></defs><defs><linearGradient id="grad2_3" x1="0%" y1="0%" x2="66.7%" y2="100%"><stop offset="20%" stop-color="#4d5bf4" stop-opacity="1"></stop><stop offset="80%" stop-color="#3748cb" stop-opacity="1"></stop></linearGradient></defs><g transform="translate(900, 0)"><path d="M0 216.3C-11 190.9 -22.1 165.5 -36.3 158.9C-50.5 152.3 -67.9 164.6 -77.7 161.3C-87.5 158 -89.7 139.1 -108.5 136C-127.3 133 -162.7 145.7 -169.1 134.9C-175.6 124.1 -153.2 89.8 -146 70.3C-138.7 50.8 -146.6 46 -160.9 36.7C-175.1 27.5 -195.7 13.7 -216.3 0L0 0Z" fill="#4252df"></path><path d="M0 162.2C-8.3 143.2 -16.5 124.1 -27.2 119.2C-37.9 114.2 -50.9 123.4 -58.2 121C-65.6 118.5 -67.3 104.3 -81.4 102C-95.5 99.7 -122 109.3 -126.9 101.2C-131.7 93.1 -114.9 67.4 -109.5 52.7C-104 38.1 -110 34.5 -120.6 27.5C-131.3 20.6 -146.8 10.3 -162.2 0L0 0Z" fill="#2d3fb7"></path><path d="M0 108.2C-5.5 95.5 -11 82.7 -18.1 79.5C-25.2 76.2 -33.9 82.3 -38.8 80.6C-43.7 79 -44.8 69.6 -54.2 68C-63.6 66.5 -81.3 72.8 -84.6 67.4C-87.8 62 -76.6 44.9 -73 35.1C-69.4 25.4 -73.3 23 -80.4 18.4C-87.6 13.7 -97.9 6.9 -108.2 0L0 0Z" fill="#172d91"></path><path d="M0 54.1C-2.8 47.7 -5.5 41.4 -9.1 39.7C-12.6 38.1 -17 41.1 -19.4 40.3C-21.9 39.5 -22.4 34.8 -27.1 34C-31.8 33.2 -40.7 36.4 -42.3 33.7C-43.9 31 -38.3 22.5 -36.5 17.6C-34.7 12.7 -36.7 11.5 -40.2 9.2C-43.8 6.9 -48.9 3.4 -54.1 0L0 0Z" fill="#0a257e"></path></g><g transform="translate(0, 600)"><path d="M0 -216.3C19 -221.1 37.9 -225.9 48.1 -210.9C58.3 -196 59.8 -161.3 72.5 -150.5C85.2 -139.6 109.2 -152.5 115.3 -144.6C121.5 -136.7 109.9 -108 123.5 -98.5C137.1 -89.1 176 -98.9 192.8 -92.9C209.6 -86.8 204.5 -64.9 204.7 -46.7C205 -28.6 210.7 -14.3 216.3 0L0 0Z" fill="#4252df"></path><path d="M0 -162.2C14.2 -165.8 28.5 -169.4 36.1 -158.2C43.8 -147 44.8 -121 54.3 -112.8C63.9 -104.7 81.9 -114.4 86.5 -108.5C91.2 -102.5 82.4 -81 92.6 -73.9C102.9 -66.8 132 -74.2 144.6 -69.6C157.2 -65.1 153.4 -48.6 153.6 -35C153.7 -21.5 158 -10.7 162.2 0L0 0Z" fill="#2d3fb7"></path><path d="M0 -108.2C9.5 -110.5 19 -112.9 24.1 -105.5C29.2 -98 29.9 -80.7 36.2 -75.2C42.6 -69.8 54.6 -76.3 57.7 -72.3C60.8 -68.4 55 -54 61.8 -49.3C68.6 -44.5 88 -49.5 96.4 -46.4C104.8 -43.4 102.2 -32.4 102.4 -23.4C102.5 -14.3 105.3 -7.2 108.2 0L0 0Z" fill="#172d91"></path><path d="M0 -54.1C4.7 -55.3 9.5 -56.5 12 -52.7C14.6 -49 14.9 -40.3 18.1 -37.6C21.3 -34.9 27.3 -38.1 28.8 -36.2C30.4 -34.2 27.5 -27 30.9 -24.6C34.3 -22.3 44 -24.7 48.2 -23.2C52.4 -21.7 51.1 -16.2 51.2 -11.7C51.2 -7.2 52.7 -3.6 54.1 0L0 0Z" fill="#0a257e"></path></g></svg>