<svg id="visual" viewBox="0 0 900 600" width="900" height="600" xmlns="http://www.w3.org/2000/svg" xmlns:xlink="http://www.w3.org/1999/xlink" version="1.1"><rect x="0" y="0" width="900" height="600" fill="#333"></rect><defs><linearGradient id="grad1_0" x1="33.3%" y1="0%" x2="100%" y2="100%"><stop offset="20%" stop-color="#6370ff" stop-opacity="1"></stop><stop offset="80%" stop-color="#6370ff" stop-opacity="1"></stop></linearGradient></defs><defs><linearGradient id="grad1_1" x1="33.3%" y1="0%" x2="100%" y2="100%"><stop offset="20%" stop-color="#6370ff" stop-opacity="1"></stop><stop offset="80%" stop-color="#525193" stop-opacity="1"></stop></linearGradient></defs><defs><linearGradient id="grad1_2" x1="33.3%" y1="0%" x2="100%" y2="100%"><stop offset="20%" stop-color="#333333" stop-opacity="1"></stop><stop offset="80%" stop-color="#525193" stop-opacity="1"></stop></linearGradient></defs><defs><linearGradient id="grad2_0" x1="0%" y1="0%" x2="66.7%" y2="100%"><stop offset="20%" stop-color="#6370ff" stop-opacity="1"></stop><stop offset="80%" stop-color="#6370ff" stop-opacity="1"></stop></linearGradient></defs><defs><linearGradient id="grad2_1" x1="0%" y1="0%" x2="66.7%" y2="100%"><stop offset="20%" stop-color="#525193" stop-opacity="1"></stop><stop offset="80%" stop-color="#6370ff" stop-opacity="1"></stop></linearGradient></defs><defs><linearGradient id="grad2_2" x1="0%" y1="0%" x2="66.7%" y2="100%"><stop offset="20%" stop-color="#525193" stop-opacity="1"></stop><stop offset="80%" stop-color="#333333" stop-opacity="1"></stop></linearGradient></defs><g transform="translate(900, 0)"><path d="M0 63C-1.9 60.7 -3.7 58.4 -8 65.5C-12.2 72.6 -18.9 89.2 -21.8 88.4C-24.7 87.6 -23.9 69.4 -21.6 57C-19.4 44.6 -15.7 37.9 -26 49.6C-36.3 61.2 -60.6 91.2 -61.4 89C-62.2 86.9 -39.5 52.6 -41.8 47.2C-44 41.8 -71.2 65.3 -74.9 66.3C-78.5 67.4 -58.7 46 -56.8 39.2C-54.9 32.4 -70.9 40.3 -80.6 42.3C-90.3 44.2 -93.6 40.2 -94.4 35.8C-95.3 31.4 -93.6 26.6 -88.4 21.8C-83.1 17 -74.1 12.3 -71.5 8.7C-68.8 5.1 -72.4 2.5 -76 0L0 0Z" fill="#454261"></path><path d="M0 42C-1.2 40.5 -2.5 38.9 -5.3 43.7C-8.1 48.4 -12.6 59.4 -14.5 58.9C-16.5 58.4 -15.9 46.3 -14.4 38C-12.9 29.8 -10.5 25.3 -17.3 33.1C-24.2 40.8 -40.4 60.8 -41 59.3C-41.5 57.9 -26.4 35 -27.9 31.4C-29.3 27.8 -47.5 43.5 -49.9 44.2C-52.3 44.9 -39.1 30.6 -37.9 26.1C-36.6 21.6 -47.3 26.9 -53.7 28.2C-60.2 29.5 -62.4 26.8 -63 23.9C-63.5 20.9 -62.4 17.7 -58.9 14.5C-55.4 11.3 -49.4 8.2 -47.7 5.8C-45.9 3.4 -48.3 1.7 -50.7 0L0 0Z" fill="#5d60c8"></path><path d="M0 21C-0.6 20.2 -1.2 19.5 -2.7 21.8C-4.1 24.2 -6.3 29.7 -7.3 29.5C-8.2 29.2 -8 23.1 -7.2 19C-6.5 14.9 -5.2 12.6 -8.7 16.5C-12.1 20.4 -20.2 30.4 -20.5 29.7C-20.7 29 -13.2 17.5 -13.9 15.7C-14.7 13.9 -23.7 21.8 -25 22.1C-26.2 22.5 -19.6 15.3 -18.9 13.1C-18.3 10.8 -23.6 13.4 -26.9 14.1C-30.1 14.7 -31.2 13.4 -31.5 11.9C-31.8 10.5 -31.2 8.9 -29.5 7.3C-27.7 5.7 -24.7 4.1 -23.8 2.9C-22.9 1.7 -24.1 0.8 -25.3 0L0 0Z" fill="#6370ff"></path></g><g transform="translate(0, 600)"><path d="M0 -101C2.4 -87 4.7 -73 9.2 -75.4C13.6 -77.9 20.1 -96.9 24.9 -101C29.7 -105.1 32.7 -94.3 30.1 -79.5C27.6 -64.7 19.4 -45.9 27.4 -52.2C35.5 -58.6 59.8 -90 61.4 -89C63.1 -88.1 42 -54.8 41.1 -46.4C40.2 -38.1 59.4 -54.7 63.6 -56.4C67.9 -58.1 57.2 -44.9 61.7 -42.6C66.3 -40.3 86 -48.9 92.1 -48.3C98.1 -47.8 90.5 -38.2 82.3 -31.2C74.1 -24.2 65.3 -20 70.9 -17.5C76.5 -15 96.5 -14.3 96.3 -11.7C96 -9.1 75.5 -4.5 55 0L0 0Z" fill="#454261"></path><path d="M0 -67.3C1.6 -58 3.1 -48.6 6.1 -50.3C9.1 -51.9 13.4 -64.6 16.6 -67.3C19.8 -70 21.8 -62.8 20.1 -53C18.4 -43.1 12.9 -30.6 18.3 -34.8C23.7 -39 39.9 -60 41 -59.3C42.1 -58.7 28 -36.5 27.4 -30.9C26.8 -25.4 39.6 -36.4 42.4 -37.6C45.2 -38.7 38.1 -29.9 41.1 -28.4C44.2 -26.9 57.4 -32.6 61.4 -32.2C65.4 -31.9 60.3 -25.4 54.9 -20.8C49.4 -16.2 43.5 -13.3 47.3 -11.6C51 -10 64.4 -9.5 64.2 -7.8C64 -6.1 50.3 -3 36.7 0L0 0Z" fill="#5d60c8"></path><path d="M0 -33.7C0.8 -29 1.6 -24.3 3.1 -25.1C4.5 -26 6.7 -32.3 8.3 -33.7C9.9 -35 10.9 -31.4 10 -26.5C9.2 -21.6 6.5 -15.3 9.1 -17.4C11.8 -19.5 19.9 -30 20.5 -29.7C21 -29.4 14 -18.3 13.7 -15.5C13.4 -12.7 19.8 -18.2 21.2 -18.8C22.6 -19.4 19.1 -15 20.6 -14.2C22.1 -13.4 28.7 -16.3 30.7 -16.1C32.7 -15.9 30.2 -12.7 27.4 -10.4C24.7 -8.1 21.8 -6.7 23.6 -5.8C25.5 -5 32.2 -4.8 32.1 -3.9C32 -3 25.2 -1.5 18.3 0L0 0Z" fill="#6370ff"></path></g></svg>