<svg id="visual" viewBox="0 0 900 600" width="900" height="600" xmlns="http://www.w3.org/2000/svg" xmlns:xlink="http://www.w3.org/1999/xlink" version="1.1"><g transform="translate(451.0152255468433 340.5098384228207)"><path d="M132.5 -160C179.8 -118.3 231.7 -84.2 251 -35.3C270.2 13.5 256.8 77 221.7 118.8C186.6 160.7 129.9 180.9 80.8 181C31.7 181.1 -9.8 161 -58.4 148.5C-107 136 -162.6 131 -202.8 98.9C-243 66.8 -267.7 7.6 -260.6 -48.2C-253.5 -104.1 -214.5 -156.6 -165.7 -198C-117 -239.4 -58.5 -269.7 -7.9 -260.3C42.6 -250.8 85.3 -201.6 132.5 -160" fill="#324fe2"></path></g></svg>