<svg id="visual" viewBox="0 0 900 600" width="900" height="600" xmlns="http://www.w3.org/2000/svg" xmlns:xlink="http://www.w3.org/1999/xlink" version="1.1"><rect width="900" height="600" fill="#6370ff"></rect><g><g transform="translate(789 518)"><path d="M82.9 -63.8C104.8 -38.7 118.1 -4.3 112.3 27.6C106.6 59.5 81.8 89 49.5 105.6C17.2 122.2 -22.6 126 -51.5 110.7C-80.4 95.4 -98.3 60.9 -106.2 24.7C-114.2 -11.6 -112.2 -49.7 -92.8 -74.3C-73.5 -98.8 -36.7 -109.7 -3.1 -107.2C30.5 -104.7 61 -88.9 82.9 -63.8Z" fill="none" stroke="#0c0907" stroke-width="20"></path></g><g transform="translate(63 112)"><path d="M70 -55.4C86.9 -34.7 94.1 -5.8 88.5 20.8C82.9 47.4 64.5 71.6 40.9 81.8C17.3 91.9 -11.6 88 -35.9 75.8C-60.2 63.6 -79.8 43.2 -85.8 19C-91.7 -5.1 -83.9 -32.9 -67.4 -53.5C-50.8 -74.2 -25.4 -87.6 0.6 -88C26.6 -88.5 53.2 -76.1 70 -55.4Z" fill="none" stroke="#0c0907" stroke-width="20"></path></g><g transform="translate(392 93)"><path d="M76.4 -60.9C95.6 -36.9 105.2 -5.3 98.7 22.3C92.2 49.9 69.5 73.5 42.8 84.9C16 96.3 -14.7 95.4 -37.6 82.7C-60.5 69.9 -75.5 45.3 -83.8 16.9C-92.1 -11.6 -93.7 -43.8 -78.6 -66.8C-63.5 -89.9 -31.8 -103.8 -1.6 -102.5C28.6 -101.3 57.3 -84.9 76.4 -60.9Z" fill="none" stroke="#0c0907" stroke-width="20"></path></g><g transform="translate(776 182)"><path d="M67.1 -52C85.7 -30.1 98.9 -2.3 95.3 25C91.7 52.3 71.3 79 44.4 91.8C17.5 104.6 -15.9 103.5 -39.8 89.4C-63.8 75.3 -78.4 48.2 -81.9 21.8C-85.4 -4.6 -78 -30.4 -62.5 -51.6C-47 -72.8 -23.5 -89.4 0.4 -89.7C24.2 -90 48.4 -74 67.1 -52Z" fill="none" stroke="#0c0907" stroke-width="20"></path></g><g transform="translate(291 530)"><path d="M67.2 -54C83 -33.7 89.1 -6 82.9 18.1C76.8 42.1 58.4 62.5 34.5 75.5C10.7 88.4 -18.6 93.8 -41.4 83.7C-64.2 73.6 -80.6 47.8 -86.5 20.3C-92.3 -7.3 -87.6 -36.7 -71.5 -57.1C-55.3 -77.4 -27.6 -88.8 -1 -88C25.6 -87.2 51.3 -74.3 67.2 -54Z" fill="none" stroke="#0c0907" stroke-width="20"></path></g></g></svg>